<svg xmlns="http://www.w3.org/2000/svg" width="256" height="256"><path fill-opacity=".016" d="M0 128.004v128.004l128.25-.254 128.25-.254.254-127.75L257.008 0H0v128.004m.485.496c0 70.4.119 99.053.265 63.672.146-35.38.146-92.98 0-128C.604 29.153.485 58.1.485 128.5" fill="#1976D2" fill-rule="evenodd"/><path fill-opacity=".115" d="M119.5 3c-.34.55-2.954 1.027-5.809 1.06-4.965.057-7.277.405-19.691 2.969-19.81 4.091-41.171 15.883-54.54 30.108C24.687 52.856 13.655 70.985 7.594 89.5c-1.44 4.4-3.077 9.35-3.637 11-.56 1.65-1.297 6.503-1.638 10.784-.342 4.282-1.003 8.021-1.47 8.309C-.373 120.349-.228 140 1 140c.55 0 1.02 2.363 1.044 5.25.024 2.887.444 7.05.934 9.25 2.037 9.151 3.171 13.169 4.557 16.151.806 1.733 1.465 3.636 1.465 4.228 0 2.507 7.727 17.357 13.851 26.621 7.635 11.551 21.818 26.375 30.859 32.255 3.416 2.222 9.266 5.467 13 7.211 3.735 1.744 7.497 3.544 8.36 3.999.864.455 4.464 1.603 8 2.55 30.502 8.174 62.358 8.174 92.86 0 3.536-.947 7.136-2.077 8-2.509.863-.433 5.15-2.456 9.527-4.496 13.455-6.272 28.6-19.158 37.623-32.01 5.124-7.299 12.311-19.468 13.879-23.5.749-1.925 1.739-3.927 2.201-4.45.462-.522.843-1.647.846-2.5.004-.852.662-2.807 1.463-4.342.801-1.536 1.757-4.461 2.124-6.5.367-2.04 1.018-4.158 1.447-4.708 1.103-1.416 3.96-25.77 3.96-33.76 0-7.395-2.749-27.67-3.965-29.24-.426-.55-1.075-2.668-1.442-4.708-.367-2.039-1.323-4.964-2.124-6.5-.801-1.535-1.459-3.282-1.463-3.882-.012-2.076-9.751-20.217-15.459-28.797-6.433-9.667-21.226-25.763-27.752-30.196-2.362-1.604-4.869-3.459-5.571-4.122-1.57-1.482-18.785-9.8-22.224-10.739-1.375-.375-3.4-1.077-4.5-1.561-2.02-.887-8.24-2.396-16.5-4.001-2.475-.481-6.637-.902-9.25-.934C144.137 4.027 142 3.55 142 3c0-.606-4.314-1-10.941-1-6.215 0-11.208.432-11.559 1M74.515 91.552c-7.298 7.515-7.581 20.736-.612 28.589 3.167 3.569 4.301 4.166 8.622 4.54 6.892.596 10.843-2.002 14.041-9.235 1.339-3.027 2.434-6.892 2.434-8.59 0-5.163-3.274-12.865-6.785-15.96C89.444 88.453 88.073 88 83.448 88c-4.968 0-5.808.334-8.933 3.552m99.778-1.302c-9.193 6.508-9.726 23.57-.987 31.616 3.393 3.124 10.247 3.934 14.534 1.717 1.744-.902 4.391-3.54 5.881-5.861 2.222-3.46 2.717-5.395 2.745-10.722.039-7.544-1.96-12.555-6.551-16.418-4.077-3.431-11.035-3.579-15.622-.332M.37 130c0 5.775.165 8.137.367 5.25.202-2.887.202-7.612 0-10.5S.37 124.225.37 130m83.647 24.75c.032 4.967 2.837 19.659 4.63 24.25 5.17 13.233 14.421 22.727 26.853 27.557 4.034 1.568 7.511 1.943 18 1.943 13.405 0 13.992-.128 24.338-5.324 7.574-3.803 17.648-18.287 19.597-28.176.38-1.925 1.075-4.625 1.546-6 .471-1.375 1.121-5.762 1.445-9.75l.588-7.25H84l.017 2.75" fill="#1976D2" fill-rule="evenodd"/><path fill-opacity=".392" d="M119 4.03C80.776 6.728 50.917 21.665 31.103 48 10.259 75.705 2 98.974 2 130c0 27.852 6.398 48.506 22.402 72.311 20.022 29.783 45.315 44.685 83.598 49.254 31.401 3.748 64.289-.906 86.132-12.187 29.593-15.285 50.038-43.75 59.527-82.878 2.52-10.392 2.52-41.234 0-51.5-6.615-26.946-21.877-53.758-40.616-71.353C189.713 11.742 156.76 1.364 119 4.03M79.741 87.429c-5.102 1.821-6.232 2.908-9.193 8.85-2.982 5.984-3.325 12.592-.952 18.349 5.656 13.724 20.102 15.238 27.122 2.842 4.326-7.637 2.59-21.267-3.398-26.682-1.57-1.419-8.56-4.896-9.538-4.744-.155.024-1.974.647-4.041 1.385m98.759-.355c-11.762 3.423-16.157 21.705-7.856 32.677 8.565 11.321 22.798 6.588 26.239-8.725 3.021-13.448-7.476-27.126-18.383-23.952m-94.827 64.667c-.741 1.232 1.121 17.335 2.633 22.759 3.257 11.69 12.137 23.745 21.557 29.266 12.873 7.544 34.057 8.306 47.182 1.697 15.109-7.608 24.923-25.622 26.131-47.963l.324-6-48.685-.259c-26.777-.143-48.891.082-49.142.5" fill="#1976D2" fill-rule="evenodd"/><path fill-opacity=".519" d="M110.5 5.58c-22.059 2.966-39.144 9.09-55 19.714-17.145 11.489-37.092 38.238-45.471 60.978-6.382 17.32-9.049 37.981-7.145 55.342 2.919 26.609 10.961 46.344 27.665 67.886C47.857 231.823 66.655 243.011 98 249.643c12.245 2.59 50.779 2.587 63-.005 11.625-2.467 21.271-5.417 28.983-8.865 26.035-11.64 48.783-38.611 58.847-69.773 8.322-25.766 8.741-52.257 1.208-76.5-9.675-31.135-31.403-59.843-56.538-74.698-21.62-12.779-53.327-18.211-83-14.222M75.735 88.534c-5.565 3.782-8.107 9.45-8.147 18.169-.029 6.408.296 7.668 2.94 11.406 4.442 6.281 7.805 8.391 13.373 8.391 3.622 0 5.596-.642 8.286-2.694 5.321-4.058 7.313-8.928 7.313-17.88 0-6.615-.353-8.107-2.79-11.789-5.459-8.248-13.803-10.477-20.975-5.603m99.558-.784c-8.946 4.93-12.599 18.774-7.582 28.737 5.464 10.85 16.209 13.527 23.805 5.931 4.529-4.53 6.484-9.375 6.484-16.072 0-14.759-11.934-24.533-22.707-18.596m-91.987 71.506c.609 9.268 3.336 20.13 6.726 26.796 4.668 9.177 16.257 18.863 26.968 22.539 7.824 2.685 25.519 2.669 32.5-.029 7.335-2.836 14.589-7.691 18.935-12.674 7.654-8.777 13.565-26.204 13.565-39.995V150H82.698l.608 9.256" fill="#1976D2" fill-rule="evenodd"/></svg>